<?xml version="1.0" standalone="no"?>
<!DOCTYPE svg PUBLIC "-//W3C//DTD SVG 20010904//EN"
 "http://www.w3.org/TR/2001/REC-SVG-20010904/DTD/svg10.dtd">
<svg version="1.0" xmlns="http://www.w3.org/2000/svg"
 width="150.000000pt" height="150.000000pt" viewBox="0 0 150.000000 150.000000"
 preserveAspectRatio="xMidYMid meet">
<metadata>
Created by potrace 1.10, written by Peter Selinger 2001-2011
</metadata>
<g transform="translate(0.000000,150.000000) scale(0.100000,-0.100000)"
fill="#000000" stroke="none">
<path d="M422 933 c3 -17 22 -18 223 -18 201 0 220 1 223 18 3 16 -13 17 -223
17 -210 0 -226 -1 -223 -17z"/>
<path d="M187 862 c-9 -2 -17 -10 -17 -18 0 -12 35 -14 214 -14 118 0 217 4
220 9 16 26 -27 32 -211 29 -104 -2 -197 -4 -206 -6z"/>
<path d="M535 776 c-33 -8 -114 -31 -180 -52 -71 -22 -142 -38 -172 -38 l-53
-1 0 -73 c0 -79 0 -80 77 -96 30 -7 31 -6 30 28 -2 67 34 105 102 108 70 2
120 -51 107 -114 l-5 -28 324 0 324 0 -5 33 c-12 76 73 135 148 104 44 -19 73
-67 64 -109 l-6 -29 87 3 c58 2 88 7 91 16 2 7 -5 12 -17 12 -28 0 -36 18 -17
39 25 27 20 37 -29 61 -76 37 -145 51 -275 56 -121 5 -128 7 -215 47 -88 41
-93 42 -205 44 -68 1 -139 -3 -175 -11z m355 -49 l65 -32 -138 -3 -137 -3 -25
28 c-13 15 -25 31 -25 35 0 9 94 16 150 11 25 -2 74 -19 110 -36z m-335 13
c-3 -5 -1 -10 4 -10 6 0 10 -3 9 -7 -9 -33 57 -72 83 -49 9 8 10 8 6 0 -7 -12
53 -21 162 -24 36 0 69 -4 74 -7 6 -3 7 -1 3 5 -4 7 -1 12 9 12 10 0 13 -5 9
-12 -4 -7 1 -6 12 3 24 20 91 24 112 7 9 -7 13 -8 9 -2 -3 6 0 11 8 11 8 0 11
-5 8 -10 -4 -6 1 -8 11 -4 16 6 16 3 -4 -30 -12 -20 -19 -45 -17 -54 5 -17
-11 -18 -281 -16 -282 2 -286 2 -292 23 -9 37 -54 94 -69 89 -11 -4 -11 -3 -2
9 10 12 8 13 -10 9 -38 -10 -11 17 38 38 50 21 56 23 49 10 -3 -5 11 -3 32 5
46 16 44 16 37 4z m68 -20 c15 -25 16 -30 3 -30 -17 0 -48 39 -40 52 9 14 19
9 37 -22z m-376 -75 c-15 -14 -25 -25 -22 -25 3 0 -2 -13 -11 -30 -14 -22 -21
-27 -31 -18 -10 8 -13 7 -13 -2 0 -27 -12 0 -15 34 -3 28 0 36 13 36 15 0 15
2 2 11 -13 10 -13 10 1 6 9 -3 31 -2 50 3 53 13 56 11 26 -15z m1148 -16 c27
-11 28 -13 9 -16 -31 -6 -87 11 -92 26 -5 16 32 11 83 -10z m-11 -76 c-13 -9
-20 -10 -25 -2 -4 6 -12 8 -18 5 -6 -4 -11 -3 -11 3 0 11 38 19 59 12 11 -3
10 -7 -5 -18z"/>
<path d="M32 763 c3 -16 18 -18 126 -21 117 -2 122 -2 122 18 0 19 -6 20 -126
20 -114 0 -125 -2 -122 -17z"/>
</g>
</svg>
